<?xml version="1.0" encoding="UTF-8" standalone="no"?><!-- Generator: Gravit.io --><svg xmlns="http://www.w3.org/2000/svg" xmlns:xlink="http://www.w3.org/1999/xlink" style="isolation:isolate" viewBox="0 0 3401.57 2267.72" width="3401.57pt" height="2267.72pt"><defs><clipPath id="_clipPath_MiXwnrpub6q0y3n5g7vhWheGFzYBzEwQ"><rect width="3401.57" height="2267.72"/></clipPath></defs><g clip-path="url(#_clipPath_MiXwnrpub6q0y3n5g7vhWheGFzYBzEwQ)"><path d=" M 241.372 1783.224 L 1486.273 1783.224 L 1751.931 2112.58 L 2012.661 1783.224 L 2883.49 1783.224 C 3035.898 1783.224 3160.061 1660.224 3160.061 1508.877 L 3160.061 96.429 L 517.965 96.429 C 365.534 96.429 241.372 219.543 241.372 370.556 L 241.372 1783.224 Z  M 1752.512 2267.72 L 1439.34 1879.873 L 144.008 1879.873 L 144.008 370.556 C 144.008 166.195 311.745 0 517.965 0 L 3257.562 0 L 3257.562 1508.877 C 3257.562 1713.465 3089.711 1879.873 2883.49 1879.873 L 2060.145 1879.873 L 1752.512 2267.72 Z " fill="rgb(251,251,255)"/><path d=" M 1205.314 1255.474 L 1085.422 1255.474 L 951.083 863.969 L 819.823 1255.474 L 705.869 1255.474 L 517.965 607.234 L 653.257 607.234 L 771.096 1014.418 L 907.319 607.234 L 998.889 607.234 L 1138.986 1014.418 L 1255.904 607.234 L 1398.054 607.234 L 1205.314 1255.474 Z " fill="rgb(255,255,255)"/><path d=" M 1845.502 751.132 C 1845.502 714.154 1818.111 686.97 1780.105 686.97 C 1744.29 686.97 1716.899 713.066 1716.899 749.125 C 1716.899 765.596 1721.736 778.338 1738.236 800.567 C 1740.257 803.525 1738.236 800.567 1746.184 811.301 C 1758.768 828.85 1758.768 828.85 1761.594 832.738 C 1763.605 835.686 1764.706 836.626 1766.558 839.574 C 1768.452 842.363 1769.373 843.451 1769.373 843.451 C 1818.111 817.197 1845.502 784.244 1845.502 751.132 Z  M 1734.33 971.671 C 1663.335 1010.688 1632.219 1043.789 1632.219 1081.549 C 1632.219 1124.285 1672.077 1156.308 1724.689 1156.308 C 1763.605 1156.308 1787.122 1145.733 1829.774 1107.825 C 1830.695 1106.895 1834.77 1103.937 1839.734 1100.049 L 1734.33 971.671 Z  M 1957.446 1255.463 L 1904.802 1188.48 C 1900.929 1191.438 1897.976 1194.238 1896.092 1195.326 C 1829.774 1250.635 1788.985 1268.057 1720.804 1268.057 C 1601.081 1268.057 1513.427 1186.61 1513.427 1075.643 C 1513.427 999.035 1565.107 938.57 1672.077 890.086 C 1621.455 832.738 1602.013 794.809 1602.013 754.883 C 1602.013 670.329 1683.74 600.388 1781.036 600.388 C 1880.523 600.388 1957.446 673.277 1957.446 767.625 C 1957.446 832.738 1919.281 882.31 1836.633 924.117 L 1924.446 1030.889 L 2041.195 934.682 L 2111.259 1022.352 L 1992.457 1116.52 L 2107.353 1255.463 L 1957.446 1255.463 Z " fill="rgb(67,178,233)"/><path d=" M 2443.662 1138.908 L 2501.099 1138.908 C 2577.059 1138.908 2619.87 1128.184 2651.811 1099.119 C 2690.865 1065.078 2713.292 1002.923 2713.292 930.963 C 2713.292 844.402 2680.133 777.408 2622.685 746.325 C 2591.548 730.784 2554.505 723.959 2491.299 723.959 L 2443.662 723.959 L 2443.662 1138.908 Z  M 2486.462 607.234 C 2614.906 607.234 2668.597 617.947 2724.024 653.848 C 2806.715 707.318 2854.521 808.501 2854.521 929.875 C 2854.521 1038.654 2821.331 1125.215 2757.183 1183.662 C 2694.771 1241.01 2642.138 1255.474 2502.031 1255.474 L 2309.291 1255.474 L 2309.291 607.234 L 2486.462 607.234 Z " fill="rgb(255,255,255)"/></g></svg>